<svg width="144" height="144" viewBox="0 0 144 144" fill="none" xmlns="http://www.w3.org/2000/svg" class="jl-main jfLogo-fav">
	<style>
		.jl-main-color {
		  fill: #0A1551;
		}
		@media (prefers-color-scheme: dark) {
		  .jl-main-color {
		    fill: #FFFFFF;
		  }
		}
	</style>
<path d="M44.4681 132.345C46.998 134.798 45.2102 139 41.6177 139H19.135C14.6992 139 11.0898 135.501 11.0898 131.201V109.406C11.0898 105.923 15.4245 104.19 17.9544 106.642L44.4681 132.345Z" class="jl-main-color"/>
<path d="M79.6113 134.04C72.9564 127.429 72.9564 116.709 79.6113 110.098L103.629 86.2368C110.284 79.6252 121.074 79.6252 127.729 86.2368C134.384 92.8483 134.384 103.568 127.729 110.179L103.711 134.04C97.0561 140.652 86.2663 140.652 79.6113 134.04Z" class="jl-pen-bottom" fill="#FFB629"/>
<path d="M16.1631 74.0853C9.50814 67.4737 9.50814 56.7542 16.1631 50.1426L56.5823 9.95868C63.2372 3.34711 74.027 3.3471 80.682 9.95868C87.3369 16.5703 87.3369 27.2897 80.682 33.9013L40.2628 74.0853C33.6078 80.6968 22.818 80.6968 16.1631 74.0853Z" class="jl-pen-top" fill="#09F"/>
<path d="M49.2051 102.726C42.5501 96.1149 42.5501 85.3954 49.2051 78.7838L103.819 24.5261C110.474 17.9145 121.263 17.9145 127.918 24.5261C134.573 31.1376 134.573 41.8571 127.918 48.4687L73.3048 102.726C66.6498 109.338 55.86 109.338 49.2051 102.726Z" class="jl-pen-middle" fill="#FF6100"/>
</svg>
